<?xml version="1.0" encoding="UTF-8"?>
<svg id="Layer_1" data-name="Layer 1" xmlns="http://www.w3.org/2000/svg" viewBox="0 0 360.84 446.23">
  <defs>
    <style>
      .cls-1 {
        fill: #bba156;
        stroke-width: 0px;
      }
    </style>
  </defs>
  <circle class="cls-1" cx="180" cy="38.69" r="38.69" transform="translate(-4.07 42.39) rotate(-13.28)"/>
  <circle class="cls-1" cx="273.54" cy="58.83" r="21.99" transform="translate(38.52 210.65) rotate(-45)"/>
  <circle class="cls-1" cx="81.75" cy="58.83" r="21.99" transform="translate(-11.33 20.36) rotate(-13.28)"/>
  <path class="cls-1" d="M84.94,96.74c11.16,0,21.68,1.76,30.78,4.82-7.22,2.88-14,6.25-20.21,10.1-7.04,4.37-13.12,9.17-18.18,14.34l9.22,5.69c10.49-10.07,25.38-18.33,43.03-23.81,2.49-.77,5.03-1.5,7.64-2.15,13.15-3.35,27.61-5.2,42.77-5.2,14.27,0,27.9,1.64,40.42,4.62,2.68.62,5.32,1.32,7.9,2.09,18.67,5.47,34.39,14.06,45.32,24.61l9.22-5.67c-5.11-5.25-11.27-10.11-18.38-14.53-6.63-4.09-13.89-7.67-21.64-10.66,8.7-2.71,18.57-4.26,29.05-4.26,22.62,0,42.5,7.17,53.65,17.95l5.29-3.26c-2.93-3-6.46-5.79-10.54-8.32-12.96-8.02-30.16-12.45-48.4-12.45-13.74,0-26.88,2.52-38.07,7.19-16.5-5.19-34.84-7.93-53.83-7.93s-38.65,2.96-55.63,8.52c-11.48-5.06-25.14-7.78-39.42-7.78-18.26,0-35.44,4.43-48.41,12.45-4.06,2.53-7.6,5.32-10.52,8.32l5.28,3.26c11.16-10.78,31.04-17.95,53.66-17.95Z"/>
  <path class="cls-1" d="M2.05,166H0v18.2h2.05c64.47,0,116.92,52.46,116.92,116.94v145.09h18.2v-145.09c0-74.51-60.61-135.13-135.12-135.13Z"/>
  <path class="cls-1" d="M278.69,146.9c-35.17,17.14-78.87,51.39-93.23,119.15h-10.07c-14.37-67.76-58.07-102.01-93.23-119.15C47.72,130.13,14.1,126.73,0,126.05v18.24c12.99.71,43.46,4,74.18,18.97,53.6,26.11,82.05,73.93,84.55,142.15h43.39c2.5-68.22,30.95-116.04,84.55-142.15,30.72-14.97,61.18-18.26,74.18-18.97v-18.24c-14.1.68-47.72,4.08-82.15,20.85Z"/>
  <path class="cls-1" d="M223.68,301.13v145.09h18.2v-145.09c0-64.47,52.45-116.94,116.92-116.94h2.05v-18.2h-2.05c-74.51,0-135.12,60.62-135.12,135.13Z"/>
</svg>